<svg xmlns="http://www.w3.org/2000/svg" viewBox="0 0 800 600" width="800" height="600">
  <defs>
    <linearGradient id="bgCable" x1="0" y1="0" x2="1" y2="1">
      <stop offset="0" stop-color="#16304d"/>
      <stop offset="1" stop-color="#0a1526"/>
    </linearGradient>
  </defs>
  <rect width="800" height="600" fill="url(#bgCable)"/>
  <circle cx="640" cy="420" r="140" fill="#68b39b" opacity="0.16"/>
  <path d="M140 300 q90 -140 200 -40 t180 60 q60 40 140 -40" fill="none" stroke="#c9743a" stroke-width="22" stroke-linecap="round"/>
  <path d="M140 300 q90 -140 200 -40 t180 60 q60 40 140 -40" fill="none" stroke="#e0904f" stroke-width="8" stroke-linecap="round" stroke-dasharray="18 22"/>
  <g>
    <rect x="96" y="278" width="60" height="46" rx="10" fill="#c9dced"/>
    <rect x="84" y="290" width="20" height="22" rx="6" fill="#8fb6d6"/>
  </g>
  <g>
    <rect x="640" y="196" width="52" height="52" rx="12" fill="#1c2f4e"/>
    <rect x="654" y="212" width="24" height="20" rx="6" fill="#68b39b"/>
  </g>
  <rect x="120" y="420" width="560" height="16" rx="8" fill="#0d1a2c"/>
</svg>
